<svg width="213" height="213" viewBox="0 0 213 213" fill="none" xmlns="http://www.w3.org/2000/svg">
<path d="M211.703 139.974C211.268 137.835 210.363 135.913 208.986 134.209C206.052 130.548 201.958 127.43 197.322 126.415C195.8 126.197 194.315 125.98 192.793 125.726C192.105 125.69 191.417 125.726 190.728 125.762C191.525 124.348 192.322 122.898 193.047 121.448C195.365 116.844 197.068 112.095 198.662 107.164C199.06 104.409 198.698 101.726 197.575 99.1887C196.343 96.3972 194.605 94.0408 192.25 92.0831C189.75 89.9804 186.889 88.494 183.701 87.624C181.418 87.0077 179.136 86.8264 176.818 87.0439L185.584 77.328C186.381 76.2404 187.178 75.1891 187.975 74.1015C189.026 72.2526 189.424 70.3312 189.243 68.301C189.424 66.9234 189.243 65.582 188.7 64.3131C188.265 62.1742 187.359 60.2528 185.983 58.5489C183.99 56.0837 181.563 54.0897 178.81 52.4946C176.673 51.2982 174.427 50.5732 172.036 50.3919C169.862 49.8844 167.653 49.8844 165.443 50.4282C165.407 50.4282 165.334 50.4644 165.298 50.4644C165.479 50.2831 165.66 50.1381 165.841 49.9569C173.956 42.5612 181.962 35.0205 189.678 27.2261C191.272 25.8122 192.286 24.1083 192.721 22.1144C193.554 20.2292 193.771 18.2716 193.373 16.2051C193.011 14.8638 192.648 13.5586 192.25 12.2173C191.417 10.1146 190.185 8.30192 188.519 6.77929C187.541 5.51043 186.345 4.49534 184.932 3.77027C183.012 2.24764 180.839 1.23255 178.412 0.652496C176.89 0.434977 175.405 0.217458 173.883 -0.0363149C170.985 -0.145075 168.232 0.434977 165.66 1.70384C153.017 7.14182 141.353 14.61 129.942 22.2594C126.5 24.5434 123.095 26.8998 119.69 29.2563C120.197 28.8212 120.704 28.35 121.211 27.9149C122.008 26.8273 122.805 25.776 123.602 24.6884C124.653 22.8395 125.051 20.918 124.87 18.8879C125.051 17.5102 124.87 16.1689 124.327 14.9C123.892 12.7611 122.986 10.8396 121.61 9.13575C119.617 6.67053 117.19 4.6766 114.437 3.08146C112.3 1.88511 110.054 1.16004 107.663 0.978775C105.489 0.47123 103.28 0.47123 101.07 1.01503C93.4261 3.04521 85.8912 5.54668 78.5011 8.41068C72.3065 10.8034 66.2568 13.5586 60.352 16.6402C54.411 19.7217 48.6511 23.1657 43.1086 26.8998C36.5879 31.2865 30.176 35.9631 24.1625 41.0386C18.4388 45.8603 13.0412 51.0445 7.93339 56.5912C6.33945 58.0051 5.32513 59.709 4.89042 61.7029C4.05723 63.5881 3.83988 65.5458 4.23836 67.6122C4.49194 69.7874 5.21645 71.745 6.44813 73.4852C7.42622 75.5516 8.83903 77.2918 10.6865 78.7057C12.0269 79.612 13.3672 80.5183 14.7076 81.4247C17.5332 82.911 20.5399 83.7449 23.764 83.8536C25.0319 83.8536 26.3361 83.7449 27.6402 83.5273C23.5105 90.1617 19.5981 96.941 15.9393 103.865C11.1213 112.929 6.73794 122.173 2.7531 131.635C2.24594 132.795 1.77501 133.992 1.30407 135.152C0.253528 137.001 -0.144955 138.922 0.036174 140.952C-0.18118 143.019 0.217303 145.013 1.12295 146.934C1.84746 148.203 2.57198 149.436 3.29649 150.705C4.67307 152.662 6.37568 154.221 8.44055 155.381C9.70845 156.433 11.1213 157.194 12.7152 157.629C14.8525 158.644 17.0985 159.188 19.4894 159.188C23.4742 159.152 28.1836 158.318 30.973 155.164C31.8061 154.221 32.6393 153.315 33.4725 152.372C33.4725 152.445 33.4725 152.517 33.4725 152.553C33.2552 154.62 33.6537 156.614 34.5593 158.535C35.2838 159.804 36.0083 161.037 36.7328 162.306C38.1094 164.263 39.812 165.822 41.8769 166.982C43.1448 168.034 44.5576 168.795 46.1515 169.23C48.2889 170.245 50.5349 170.789 52.9258 170.789C56.9468 170.753 61.5837 169.882 64.4093 166.765C67.3436 163.538 70.3503 160.312 73.3933 157.158C73.502 158.572 73.8642 159.949 74.5163 161.29C75.2408 162.559 75.9653 163.792 76.6898 165.061C78.0664 167.018 79.769 168.577 81.8339 169.737C83.1018 170.789 84.5146 171.55 86.1085 171.985C88.2458 173 90.4918 173.544 92.8827 173.544C94.3318 173.435 95.7808 173.29 97.1936 173.182C99.9468 172.638 102.338 171.405 104.366 169.52C107.844 166.946 111.358 164.408 114.872 161.907C120.269 158.136 125.703 154.439 131.173 150.813C127.841 156.215 124.58 161.689 121.392 167.2C117.335 174.305 113.423 181.484 109.655 188.77C108.605 190.619 108.206 192.541 108.387 194.571C108.17 196.637 108.568 198.631 109.474 200.553C110.199 201.822 110.923 203.054 111.648 204.323C113.024 206.281 114.727 207.84 116.792 209C118.06 210.051 119.472 210.812 121.066 211.247C123.204 212.262 125.45 212.806 127.841 212.806C131.898 212.77 136.39 211.864 139.324 208.782C153.561 193.81 169.718 180.903 186.381 168.722C190.511 165.713 194.677 162.741 198.843 159.768C200.944 158.281 203.045 156.831 205.11 155.345C207.03 154.475 208.515 153.17 209.566 151.43C210.979 149.907 211.776 148.131 212.029 146.028C212.609 143.889 212.428 141.895 211.703 139.974Z" fill="black"/>
</svg>
