<svg width="217" height="222" viewBox="0 0 217 222" fill="none" xmlns="http://www.w3.org/2000/svg">
<path d="M216.68 144.927C216.24 143.769 215.841 142.611 215.401 141.493C213.962 138.777 212.123 136.301 209.924 134.144C208.605 132.986 207.245 131.788 205.926 130.63C203.248 128.513 200.289 126.796 197.131 125.518C194.333 124.24 191.494 122.962 188.656 121.804C190.415 122.044 192.214 122.323 193.973 122.603C195.732 123.122 197.451 123.162 199.13 122.683C200.609 122.603 201.808 122.004 202.768 120.806C203.687 119.568 203.967 118.25 203.687 116.812C203.727 115.055 203.288 113.378 202.328 111.82C200.089 107.587 196.731 103.793 192.853 100.958C191.374 99.9593 189.895 98.9609 188.456 97.9625C185.817 96.3651 182.979 95.2468 179.98 94.528C177.302 93.7293 174.623 93.0504 171.945 92.4114C176.782 91.0137 181.62 89.7357 186.497 88.4178C187.936 87.8987 188.816 86.9801 189.135 85.6223C189.895 84.3044 189.975 82.8668 189.455 81.3492C189.015 79.4323 188.176 77.6751 187.017 76.0777C186.217 74.64 185.298 73.3221 184.218 72.124C186.857 72.0042 189.495 71.9243 192.134 71.8844C193.733 72.0042 195.092 71.5649 196.211 70.5266C197.451 69.8876 198.17 68.8094 198.29 67.2918C198.49 65.6145 198.21 64.0171 197.451 62.5394C196.851 60.5826 195.892 58.7855 194.532 57.1481C191.414 53.1146 187.456 49.4405 182.939 46.9645C181.5 46.2456 180.02 45.5268 178.581 44.8079C176.103 43.7297 173.504 43.1706 170.786 43.1706C159.152 42.0923 147.518 41.4533 135.845 41.1738C142.681 36.9805 149.437 32.6675 156.154 28.3145C157.593 27.7953 158.472 26.8768 158.792 25.519C159.552 24.2011 159.632 22.7634 159.112 21.2458C158.672 19.3289 157.833 17.5717 156.673 15.9743C155.514 13.9376 154.075 12.1005 152.356 10.4632C148.718 6.90888 144.4 3.59421 139.563 1.7971C138.204 1.3578 136.804 0.958445 135.445 0.519151C133.206 -0.0798855 130.968 -1.38506e-05 128.769 0.71883C117.695 7.86734 106.621 14.9759 95.1474 21.4455C83.8336 27.8352 72.1201 33.6259 59.8469 37.9789C53.4504 40.2553 46.934 42.1323 40.2977 43.4901C37.1395 44.0492 33.9412 44.5284 30.743 44.8878C29.1439 44.768 27.7846 45.2073 26.6653 46.2456C25.4259 46.8846 24.7063 47.9629 24.5864 49.4804C24.3865 51.1577 24.6664 52.7552 25.4259 54.2328C26.0256 56.1896 26.9851 57.9868 28.3443 59.6241C31.4626 63.6576 35.4204 67.3317 39.9379 69.8078C40.0578 69.8876 40.1778 69.9276 40.2977 70.0074C37.939 70.9659 35.5403 71.9643 33.2216 73.0026C27.7447 75.3988 22.4276 78.4339 18.1899 82.707C17.8701 83.5457 17.5103 84.3444 17.1905 85.183C16.9906 86.8603 17.2705 88.4578 18.03 89.9354C19.3093 93.3299 21.5481 96.4849 24.1466 99.0008C26.3055 101.077 28.6641 102.994 31.1828 104.632C24.1067 108.106 17.2305 112.02 10.6741 116.373C9.23489 116.892 8.35538 117.811 8.03556 119.168C7.27598 120.486 7.19602 121.924 7.71573 123.442C8.55527 126.876 10.5941 129.751 12.8729 132.387C15.4315 135.342 18.5497 138.138 21.9479 140.175C20.6686 141.133 19.3893 142.131 18.15 143.17C17.8301 144.008 17.4703 144.807 17.1505 145.646C16.9506 147.323 17.2305 148.921 17.9901 150.398C19.2693 153.793 21.5081 156.948 24.1067 159.464C26.6653 161.94 29.4637 164.136 32.502 165.973C33.3016 166.492 34.1011 166.932 34.9407 167.331C34.8607 167.371 34.8207 167.371 34.7408 167.411C23.8668 172.123 13.1127 177.275 3.31817 183.984C1.87896 184.503 0.999449 185.422 0.679626 186.78C-0.0799542 188.098 -0.15991 189.535 0.359803 191.053C0.799559 192.97 1.63909 194.727 2.79845 196.324C3.95781 198.361 5.39702 200.198 7.11607 201.835C10.7541 205.39 15.0717 208.704 19.909 210.502C23.1872 211.7 27.2649 213.057 30.703 211.58C37.8591 208.465 44.9751 205.39 52.1712 202.395C52.371 202.994 52.6909 203.593 53.0507 204.192C54.8896 207.706 57.5282 210.661 60.5265 213.297C63.6848 216.053 67.3228 218.728 71.3206 220.166C72.6798 220.605 74.079 221.005 75.4383 221.444C77.677 222.043 79.9158 221.963 82.1146 221.244C92.6687 215.653 103.863 211.3 115.416 208.265C118.255 207.506 121.133 206.867 124.011 206.268C127.889 205.55 131.807 204.99 135.725 204.551C142.641 205.47 149.597 206.029 156.553 206.268C163.869 206.508 171.185 206.348 178.461 205.709C180.06 205.829 181.42 205.39 182.539 204.351C183.778 203.712 184.498 202.634 184.618 201.117C184.538 200.118 184.498 199.08 184.418 198.082C183.978 196.165 183.139 194.407 181.979 192.81C179.821 189.376 176.942 186.181 173.664 183.785C170.346 181.309 166.548 178.832 162.47 177.754C168.627 174.879 174.743 172.043 180.9 169.208C181.62 168.689 182.339 168.17 183.019 167.611C183.938 166.373 184.218 165.055 183.938 163.617C184.018 162.459 183.778 161.381 183.219 160.382C182.779 158.944 182.139 157.587 181.3 156.349C182.739 156.029 184.178 155.71 185.617 155.39C186.337 154.871 187.057 154.352 187.736 153.793C188.056 152.954 188.416 152.155 188.736 151.317C188.656 150.318 188.616 149.28 188.536 148.282C188.336 147.403 188.056 146.564 187.696 145.726C189.295 146.125 190.894 146.564 192.454 147.044C196.052 148.202 199.61 149.52 203.088 150.997C205.007 151.876 206.966 152.395 209.044 152.475C210.683 152.834 212.283 152.675 213.882 152.075C215.321 151.556 216.2 150.638 216.52 149.28C217.12 147.882 217.2 146.445 216.68 144.927Z" fill="black"/>
</svg>
