<svg width="243" height="214" viewBox="0 0 243 214" fill="none" xmlns="http://www.w3.org/2000/svg">
<path d="M130.237 0.971219C132.222 1.41948 134.146 2.08291 135.968 2.99388C138.163 3.87337 140.261 4.96387 142.26 6.26534C145.882 8.60321 149.726 11.2626 152.288 14.7758C153.506 16.4326 155.806 19.3235 154.447 21.5014C151.473 26.1614 148.494 30.8579 145.524 35.4814C146.307 34.4597 147.094 33.4015 147.876 32.3798C149.401 30.3688 152.89 30.9512 154.879 31.3629C156.865 31.8112 158.789 32.4746 160.61 33.3856C162.806 34.2651 164.903 35.3556 166.903 36.657C170.524 38.9949 174.369 41.6543 176.931 45.1675C178.21 46.9423 180.352 49.593 179.09 51.8931C176.24 57.0857 173.28 62.2657 170.325 67.4092C172.232 68.2189 174.046 69.2029 175.769 70.3249C177.46 71.4061 179.18 72.5646 180.777 73.8204C184.602 70.1459 188.39 66.4673 192.215 62.7928C192.909 61.909 193.808 61.493 194.876 61.5406C196.319 61.2236 197.753 61.3129 199.214 61.8125C201.2 62.2608 203.124 62.9242 204.945 63.8352C207.141 64.7146 209.238 65.8051 211.238 67.1066C214.859 69.4445 218.703 72.1039 221.266 75.6171C221.832 76.4962 222.435 77.3794 223.001 78.2585C223.851 79.5772 223.993 80.9264 223.388 82.3386C217.894 88.9702 212.261 95.5121 206.527 101.968C208.61 100.91 210.689 99.8874 212.768 98.8653C214.073 98.4585 215.41 98.4256 216.705 98.7582C218.5 98.9256 220.266 99.3489 221.958 100.097C225.648 101.517 229.059 103.423 232.319 105.683C235.166 107.674 238.276 109.953 240.324 112.778C240.89 113.657 241.493 114.541 242.06 115.42C242.909 116.738 243.052 118.088 242.447 119.5C234.107 129.658 226.273 140.245 218.995 151.154C211.713 162.099 204.951 173.363 198.744 184.949C195.26 191.476 191.947 198.134 188.813 204.85C188.12 205.733 187.221 206.149 186.152 206.102C184.709 206.419 183.275 206.33 181.814 205.83C179.828 205.382 177.905 204.718 176.083 203.807C173.887 202.928 171.79 201.837 169.79 200.536C166.205 198.202 162.361 195.543 159.795 192.066C157.411 194.794 154.962 197.44 152.407 200.037C148.386 204.134 144.167 208.023 139.586 211.5C138.893 212.384 137.994 212.8 136.926 212.752C135.483 213.069 134.049 212.98 132.588 212.48C130.602 212.032 128.678 211.369 126.857 210.458C124.661 209.578 122.564 208.488 120.564 207.186C116.943 204.848 113.098 202.189 110.536 198.676C110.314 198.354 110.022 197.988 109.735 197.585C100.315 202.918 90.7374 208.011 81.0145 212.754C79.7092 213.16 78.3725 213.193 77.0774 212.861C75.2821 212.693 73.5159 212.27 71.8238 211.522C67.5216 209.958 63.0352 207.411 59.4718 204.561C58.3571 203.62 57.21 202.637 56.0953 201.696C54.3486 200.127 52.891 198.295 51.7184 196.236C51.4727 195.467 51.227 194.699 50.9812 193.93C50.847 192.508 51.4387 191.538 52.793 191.026C55.5284 189.116 58.268 187.169 61.0075 185.223C58.4043 183.371 55.753 181.292 53.8951 178.748C53.3287 177.868 52.7258 176.985 52.1594 176.106C51.3098 174.787 51.1673 173.438 51.7724 172.026C55.2818 167.871 58.7629 163.639 62.2034 159.44C61.1623 159.802 60.1254 160.129 59.052 160.451C56.1773 161.308 52.4831 160.258 49.8614 159.219C46.1722 157.799 42.7606 155.893 39.5004 153.633C36.6538 151.642 33.5438 149.363 31.4958 146.538C30.3422 144.962 27.844 141.864 29.3366 139.812C33.1536 134.582 36.9341 129.347 40.7187 124.076C37.4757 125.891 34.2004 127.666 30.8968 129.363C29.5915 129.77 28.2548 129.803 26.9597 129.47C25.1644 129.303 23.3983 128.879 21.7062 128.131C18.017 126.711 14.6054 124.805 11.3452 122.545C8.49855 120.555 5.38865 118.275 3.34062 115.45C2.18704 113.874 -0.307041 110.739 1.18136 108.724C12.2725 93.9173 23.3271 79.1063 34.4141 64.336C32.7724 64.4453 31.1673 64.5587 29.5257 64.668C27.791 64.6186 26.1628 64.2851 24.5637 63.6956C22.5134 63.166 20.5289 62.3845 18.6466 61.3556C16.4353 60.2892 14.3221 59.0117 12.3759 57.5682C10.4455 56.3116 8.64552 54.8847 6.97603 53.2876C6.12139 52.3386 5.23018 51.3855 4.37137 50.4731C3.09148 49.0314 2.27522 47.4203 1.85778 45.5584C1.9651 44.9412 2.10482 44.3646 2.21214 43.7474C3.23095 42.6045 4.50379 42.157 6.03904 42.3318C21.3168 40.1838 36.3955 36.5319 50.9462 31.3389C55.1512 29.8553 59.2996 28.2172 63.3833 26.4976C64.6886 26.0908 66.0253 26.0579 67.3204 26.3905C69.1157 26.5579 70.8818 26.9812 72.574 27.7293C76.2631 29.1492 79.6747 31.0558 82.9349 33.3155C85.3355 34.9959 87.9304 36.9206 89.9312 39.185C95.444 33.37 100.892 27.4736 106.198 21.524C111.968 15.0719 117.597 8.5665 123.229 2.02463C124.937 0.0344822 128.105 0.506291 130.237 0.971219Z" fill="black"/>
</svg>
