<svg width="229" height="211" viewBox="0 0 229 211" fill="none" xmlns="http://www.w3.org/2000/svg">
<path d="M226.81 116.716C226.209 114.869 225.307 113.194 223.976 111.733C222.516 109.371 220.627 107.352 218.265 105.805C216.762 104.989 215.302 104.173 213.799 103.357C210.793 102.111 207.702 101.767 204.481 102.283C192.329 106.493 180.091 110.445 167.767 114.139C161.24 116.072 154.713 117.962 148.144 119.724C152.309 117.662 156.474 115.685 160.682 113.709C172.276 108.297 183.999 103.271 195.893 98.5883C197.396 97.9868 198.899 97.4284 200.402 96.827C201.604 95.839 202.806 94.8939 203.966 93.9059C205.64 92.1016 206.671 90.0396 207.143 87.677C207.787 86.1305 208.045 84.4981 207.916 82.8227C208.217 80.1593 207.916 77.5389 206.972 74.9614C205.726 71.353 203.794 67.9593 201.346 65.0382C199.586 62.9333 197.525 61.3009 195.077 60.184C193.016 58.8093 190.697 57.9931 188.164 57.7354C184.17 57.7783 180.22 57.9072 176.226 58.122C177.6 57.4347 178.932 56.7903 180.306 56.103C185.029 53.7403 189.71 51.2917 194.218 48.5424C200.015 45.0199 205.426 40.8529 210.536 36.3424C211.351 35.0536 212.21 33.7219 213.026 32.4332C214.1 30.1564 214.615 27.7508 214.486 25.2593C214.744 23.498 214.615 21.7367 214.057 20.0614C213.713 17.2261 212.768 14.6057 211.266 12.1142C210.149 10.5677 209.033 9.02119 207.916 7.43175C206.585 6.22893 205.211 5.02612 203.88 3.8233C201.819 2.23386 199.586 1.20287 197.052 0.773291C194.819 -0.0429073 192.501 -0.214739 190.096 0.300755C172.877 4.59654 155.572 8.67753 138.181 12.1571C120.791 15.6367 103.314 18.4719 85.6655 20.3191C76.3905 21.2642 67.1154 21.9515 57.8403 22.2952C50.6264 22.467 43.4553 22.424 36.2414 22.1233C33.8367 21.6938 31.5609 22.0374 29.4568 23.0684C27.1381 23.6269 25.2487 24.8726 23.7029 26.7628C22.0282 28.567 20.9976 30.629 20.5253 32.9917C19.6235 35.3543 19.323 37.8459 19.6665 40.4234C20.01 42.1846 20.3535 43.9459 20.697 45.7501C21.8564 49.4445 23.7458 52.7952 26.3222 55.6734C27.6534 56.8762 29.0274 58.079 30.3586 59.2818C33.1068 61.2579 36.1555 62.5037 39.5048 62.9333C57.1103 63.6206 74.8017 63.0192 92.3213 61.4297C84.9356 66.241 77.3781 70.7945 70.0783 75.7347C63.079 80.4601 56.3374 85.572 49.9393 91.0706C46.8047 93.1756 43.7989 95.5383 41.1366 98.2016C38.4313 100.865 36.4132 104.173 34.5238 107.438C33.4503 109.714 32.935 112.12 33.0638 114.612C32.7632 117.275 33.0638 119.895 34.0085 122.473C34.7814 124.234 35.5114 125.995 36.2843 127.757C37.229 129.604 38.4313 131.193 39.8484 132.611C33.1926 136.348 26.3222 139.785 19.2371 142.62C18.55 142.878 17.9059 143.136 17.2189 143.393C15.5013 143.995 13.7407 144.553 11.9802 145.069C9.57553 145.412 7.5144 146.443 5.83974 148.119C3.86449 149.407 2.44746 151.212 1.54572 153.488C0.472211 155.765 -0.0430708 158.171 0.0857497 160.662C-0.214832 163.326 0.0857498 165.946 1.03043 168.524L3.30626 173.807C5.15269 177.115 7.64322 179.864 10.692 182.098C12.1949 182.914 13.6548 183.731 15.1578 184.547C18.1636 185.793 21.2553 186.136 24.4758 185.621C37.272 184.289 50.0252 182.7 62.7355 180.81C64.8396 180.509 66.9436 180.165 69.0477 179.822C68.3606 181.712 68.0171 183.688 68.1459 185.707C67.8454 188.37 68.1459 190.991 69.0906 193.568L71.3665 198.852C73.2129 202.16 75.7034 204.909 78.7522 207.143C80.2551 207.959 81.715 208.775 83.218 209.591C86.2238 210.837 89.3155 211.181 92.536 210.665C107.136 209.505 121.778 208.388 136.421 207.658C140.028 207.486 143.635 207.357 147.242 207.229C162.4 206.842 177.558 207.1 192.63 208.431C197.138 208.818 201.647 209.334 206.156 209.935C208.56 210.365 210.836 210.021 212.94 208.99C215.259 208.431 217.148 207.186 218.694 205.296C220.369 203.491 221.399 201.429 221.872 199.067C222.774 196.704 223.074 194.212 222.731 191.635C222.387 189.874 222.044 188.112 221.7 186.308C220.541 182.614 218.651 179.263 216.075 176.385C212.468 172.648 208.131 169.812 202.892 169.125C195.034 168.051 187.176 167.321 179.275 166.891C183.956 164.013 188.679 161.178 193.36 158.3C202.72 152.586 212.039 146.916 221.399 141.202C223.546 140.086 225.178 138.453 226.252 136.348C227.712 134.415 228.613 132.224 228.871 129.776C228.914 128.057 229 126.382 229.043 124.664C228.828 121.828 228.141 119.165 226.81 116.716Z" fill="black"/>
</svg>
