<svg width="198" height="214" viewBox="0 0 198 214" fill="none" xmlns="http://www.w3.org/2000/svg">
<path d="M195.677 72.6062C194.808 70.9566 193.763 69.4126 192.524 68.018C191.223 66.2851 189.76 64.6893 188.132 63.2304C185.203 60.5831 181.935 57.8154 178.218 56.385C176.462 55.7016 173.358 54.3552 171.755 56.0755C168.341 59.8156 164.895 63.5682 161.512 67.2959C162.23 66.3603 162.978 65.4123 163.696 64.4767C165.112 62.6492 163.766 59.702 162.929 58.04C162.06 56.3904 161.015 54.8464 159.776 53.4518C158.475 51.7189 157.011 50.1231 155.384 48.6642C152.455 46.0169 149.187 43.2492 145.47 41.8188C143.596 41.1098 140.741 39.8459 139.007 41.5093C135.092 45.2661 131.214 49.1168 127.368 52.9552C126.198 51.4607 124.895 50.0909 123.493 48.8332C122.134 47.5945 120.7 46.3492 119.209 45.2351C121.549 40.9772 123.902 36.7506 126.242 32.4927C126.858 31.6692 127.012 30.775 126.716 29.8413C126.653 28.4892 126.233 27.2421 125.443 26.0684C124.574 24.4188 123.529 22.8748 122.29 21.4801C120.99 19.7473 119.526 18.1514 117.899 16.6925C114.969 14.0452 111.702 11.2776 107.984 9.84719C107.072 9.55538 106.147 9.23223 105.235 8.94042C103.866 8.5027 102.639 8.69767 101.533 9.56904C96.975 16.0077 92.5287 22.547 88.1822 29.1556C88.623 27.061 89.0325 24.9788 89.442 22.8967C89.4912 21.6453 89.2022 20.455 88.5997 19.3885C88.0244 17.8403 87.2297 16.3787 86.1652 15.0599C84.0313 12.1344 81.5329 9.57034 78.7582 7.2241C76.3201 5.1797 73.5635 2.97122 70.5771 1.83187C69.6647 1.54006 68.7399 1.21691 67.8275 0.9251C66.4589 0.487385 65.2314 0.682352 64.1263 1.55372C57.1252 11.3487 49.625 20.7974 41.7073 29.8312C33.7583 38.8774 25.4041 47.5401 16.6325 55.7879C11.6875 60.4226 6.58655 64.9377 1.39237 69.3085C0.775541 70.1319 0.621501 71.0261 0.917869 71.9599C0.980888 73.3119 1.40107 74.559 2.19078 75.7327C3.05981 77.3823 4.10451 78.9263 5.34385 80.321C6.64432 82.0538 8.10809 83.6497 9.73515 85.1086C12.6526 87.7246 15.9199 90.4922 19.606 91.935C17.7605 94.6931 16.0025 97.4891 14.3129 100.367C11.6463 104.899 9.21068 109.557 7.22467 114.436C6.60785 115.259 6.4538 116.153 6.75017 117.087C6.81319 118.439 7.23337 119.686 8.02309 120.86C8.89211 122.51 9.93682 124.054 11.1762 125.448C12.4766 127.181 13.9404 128.777 15.5675 130.236C18.4973 132.883 21.7646 135.651 25.482 137.081C25.8194 137.202 26.2129 137.372 26.6378 137.53C24.1621 147.132 21.9364 156.816 20.0547 166.546C20.0055 167.797 20.2945 168.988 20.8969 170.054C21.4723 171.602 22.267 173.064 23.3314 174.383C25.7385 177.816 29.0596 181.179 32.4283 183.653C33.5264 184.415 34.6682 185.195 35.7664 185.957C37.5699 187.129 39.5375 187.983 41.6378 188.53C42.3761 188.564 43.1144 188.599 43.8527 188.633C45.1428 188.414 45.8595 187.659 45.9903 186.339C47.029 183.465 48.099 180.579 49.169 177.692C51.4264 179.554 53.8966 181.405 56.5894 182.443C57.5018 182.734 58.4266 183.058 59.339 183.349C60.7076 183.787 61.935 183.592 63.0402 182.721C65.8802 178.628 68.7952 174.541 71.6913 170.499C71.6181 171.506 71.5763 172.501 71.5468 173.527C71.4724 176.274 73.2805 179.292 74.8236 181.364C76.9575 184.289 79.4559 186.853 82.2307 189.199C84.6687 191.244 87.4253 193.452 90.4117 194.592C92.0798 195.237 95.4153 196.71 96.8749 194.901C100.593 190.28 104.324 185.69 108.086 181.088C107.252 184.388 106.462 187.708 105.747 191.034C105.697 192.286 105.986 193.476 106.589 194.542C107.164 196.091 107.959 197.552 109.023 198.871C111.157 201.797 113.656 204.361 116.43 206.707C118.869 208.751 121.625 210.96 124.611 212.099C126.28 212.745 129.646 214.205 131.075 212.409C141.533 199.074 152.003 185.771 162.43 172.448C162.724 173.927 163.006 175.373 163.3 176.852C163.757 178.374 164.439 179.735 165.341 181.009C166.297 182.697 167.461 184.267 168.819 185.687C170.289 187.389 171.921 188.954 173.662 190.332C175.233 191.741 176.923 192.994 178.733 194.09C179.776 194.62 180.831 195.182 181.843 195.725C183.422 196.514 185.042 196.852 186.788 196.779C187.309 196.537 187.785 196.276 188.306 196.034C189.074 194.861 189.167 193.628 188.647 192.312C186.912 178.286 186.553 164.079 187.684 149.972C187.996 145.899 188.458 141.84 189.007 137.818C189.056 136.567 188.767 135.376 188.165 134.31C187.589 132.762 186.795 131.3 185.73 129.981C183.596 127.056 181.098 124.492 178.323 122.146C176.265 120.422 173.945 118.585 171.466 117.354C175.298 111.093 179.217 104.871 183.217 98.7614C187.551 92.1215 191.966 85.5946 196.413 79.0553C197.767 77.071 196.595 74.3813 195.677 72.6062Z" fill="black"/>
</svg>
