<svg width="210" height="219" viewBox="0 0 210 219" fill="none" xmlns="http://www.w3.org/2000/svg">
<path d="M209.586 109.292C209.461 107.635 209.046 106.062 208.341 104.571C207.553 101.962 206.35 99.6011 204.691 97.4061C202.576 94.5486 200.087 91.9809 197.225 89.8688C195.4 88.4607 193.327 87.5082 191.128 87.0526C189.262 86.3072 187.354 86.1829 185.321 86.5971C180.095 88.1294 174.911 89.8274 169.726 91.6082C175.035 87.094 180.386 82.5385 185.695 78.0244C186.815 77.0718 187.934 76.1193 189.054 75.1668C190.672 74.09 191.709 72.6405 192.165 70.8183C193.078 68.9547 193.409 67.0082 193.161 64.8961C193.078 62.4527 192.538 60.0921 191.543 57.8972C190.755 55.2881 189.552 52.9275 187.893 50.7325C186.69 49.3245 185.529 47.9164 184.326 46.5083C182.003 44.1477 179.349 42.2841 176.321 40.9588C174.994 40.5861 173.625 40.2134 172.297 39.8407C169.767 39.4265 167.403 39.9235 165.246 41.3316C158.403 44.272 151.559 47.3366 144.798 50.4841C145.545 48.7861 145.835 46.9639 145.586 45.0174C145.337 43.4851 145.088 41.9528 144.881 40.4205C144.259 37.8114 143.222 35.4094 141.729 33.2144C140.941 31.5164 139.862 30.0255 138.576 28.7003C137 26.5882 135.092 24.766 132.852 23.2751C131.484 22.5296 130.115 21.7842 128.746 21.0387C126.258 19.9205 123.645 19.5892 120.948 20.0034C115.556 22.1983 110.247 24.5175 104.98 26.9195C105.229 24.766 105.063 22.6539 104.358 20.5417C103.735 17.9327 102.698 15.5306 101.205 13.3357C99.9609 10.8509 98.3018 8.65592 96.2694 6.70946C94.9422 5.6327 93.6564 4.51452 92.3291 3.43776C89.8819 1.69837 87.1444 0.538777 84.1995 0.0418091C82.9552 0.0832231 81.6694 0.0832231 80.4251 0.124637C77.9364 0.663019 76.0285 1.98827 74.7012 4.1418C69.8898 9.73269 64.954 15.2407 59.8938 20.666C46.3307 35.0781 32.1039 48.8689 17.255 61.9143C12.9414 65.683 8.62772 69.4103 4.23111 73.0547C2.6135 74.1315 1.57656 75.5809 1.12031 77.4032C0.207808 79.2668 -0.124011 81.2132 0.124853 83.3254C0.373717 84.8577 0.622582 86.39 0.829969 87.9223C1.45213 90.5314 2.48906 92.9334 3.98225 95.1283C4.77032 96.8263 5.84873 98.3172 7.13453 99.6425C8.71067 101.755 10.6186 103.577 12.8584 105.068C14.2272 105.813 15.5959 106.559 16.9647 107.304C19.4533 108.422 22.0664 108.754 24.7624 108.339C28.3295 107.221 31.8551 106.02 35.3806 104.736C29.3249 111.073 23.2278 117.368 16.9647 123.497C13.8953 126.52 10.7845 129.502 7.67374 132.484C6.05612 133.561 5.01918 135.01 4.56293 136.832C3.65043 138.696 3.31861 140.642 3.56748 142.754C3.65043 145.198 4.18964 147.558 5.18509 149.753C5.97316 152.363 7.17601 154.723 8.8351 156.918C10.0379 158.326 11.1993 159.734 12.4022 161.142C14.7249 163.503 17.3794 165.367 20.4073 166.692C21.942 167.23 23.6425 167.727 25.3431 167.851C24.5965 169.549 24.3062 171.413 24.555 173.359C24.638 175.803 25.1772 178.163 26.1726 180.358C26.9607 182.967 28.1636 185.328 29.8227 187.523C31.0255 188.931 32.1869 190.339 33.3897 191.747C35.7125 194.108 38.367 195.971 41.3949 197.297C42.7221 197.669 44.0909 198.042 45.4182 198.415C47.9483 198.829 50.3125 198.332 52.4693 196.924C66.6131 188.476 80.7569 180.027 95.0666 171.868C99.8365 169.135 104.606 166.485 109.459 163.834C103.943 170.792 98.7581 178.081 94.1541 185.701C93.0757 187.44 92.5779 189.304 92.6194 191.292C92.2876 193.528 92.495 195.764 93.2001 198.001L94.9422 202.805C96.062 205.372 97.5967 207.692 99.5047 209.721C100.542 211.212 101.786 212.454 103.238 213.49C104.98 215.188 107.012 216.471 109.293 217.383C112.943 218.666 116.967 219.37 120.409 217.01C130.862 209.845 141.355 202.681 151.974 195.723C152.72 195.226 153.508 194.729 154.296 194.232C155.25 195.889 156.37 197.38 157.656 198.788C159.232 200.9 161.14 202.722 163.38 204.213C164.749 204.958 166.117 205.704 167.486 206.449C169.975 207.567 172.588 207.899 175.284 207.485L178.561 206.076C180.593 204.544 181.879 202.473 182.376 199.947C182.625 198.912 182.957 197.918 183.289 196.924C185.736 191.333 189.137 186.239 192.621 181.269C196.894 175.14 201.207 169.011 205.479 162.882C206.558 161.142 207.056 159.279 207.014 157.291C207.346 155.054 207.138 152.818 206.433 150.582C205.853 148.967 205.272 147.393 204.691 145.778C203.571 143.21 202.037 140.891 200.129 138.862C199.092 137.371 197.848 136.128 196.396 135.093C195.815 134.554 195.234 134.016 194.571 133.561C199.258 128.839 203.82 124.035 208.341 119.19C208.798 118.03 209.254 116.829 209.71 115.67C210.125 113.558 210.125 111.404 209.586 109.292Z" fill="black"/>
</svg>
