<svg width="215" height="214" viewBox="0 0 215 214" fill="none" xmlns="http://www.w3.org/2000/svg">
<path d="M213.677 73.3328C213.238 75.4886 212.324 77.4251 210.934 79.1424C207.973 82.8328 203.841 85.9751 199.161 86.9982C197.625 87.2175 196.126 87.4367 194.591 87.6925C193.896 87.729 193.201 87.6925 192.506 87.6559C193.311 89.0809 194.115 90.5425 194.847 92.004C197.187 96.6444 198.905 101.431 200.514 106.4C200.916 109.177 200.55 111.881 199.417 114.439C198.174 117.252 196.419 119.627 194.042 121.6C191.519 123.719 188.631 125.218 185.413 126.094C183.11 126.716 180.806 126.898 178.466 126.679L187.314 136.471C188.119 137.568 188.923 138.627 189.728 139.723C190.788 141.587 191.19 143.523 191.007 145.569C191.19 146.958 191.007 148.31 190.459 149.589C190.02 151.744 189.106 153.681 187.717 155.398C185.706 157.883 183.256 159.893 180.477 161.5C178.32 162.706 176.053 163.437 173.64 163.619C171.446 164.131 169.216 164.131 166.985 163.583C166.949 163.583 166.876 163.546 166.839 163.546C167.022 163.729 167.205 163.875 167.387 164.058C175.578 171.512 183.658 179.112 191.446 186.968C193.055 188.393 194.079 190.11 194.517 192.12C195.358 194.02 195.578 195.993 195.176 198.075C194.81 199.427 194.444 200.743 194.042 202.095C193.201 204.214 191.958 206.041 190.276 207.575C189.289 208.854 188.082 209.877 186.656 210.608C184.718 212.143 182.525 213.166 180.075 213.75C178.539 213.97 177.04 214.189 175.504 214.445C172.579 214.554 169.801 213.97 167.205 212.691C154.444 207.21 142.671 199.683 131.153 191.973C127.68 189.671 124.243 187.296 120.806 184.921C121.317 185.36 121.829 185.835 122.341 186.273C123.146 187.37 123.95 188.429 124.754 189.525C125.815 191.389 126.217 193.325 126.034 195.371C126.217 196.76 126.034 198.112 125.486 199.391C125.047 201.546 124.133 203.483 122.743 205.2C120.732 207.685 118.283 209.695 115.504 211.302C113.347 212.508 111.08 213.239 108.667 213.421C106.473 213.933 104.242 213.933 102.012 213.385C94.2971 211.339 86.6919 208.818 79.233 205.931C72.9806 203.52 66.8745 200.743 60.9147 197.637C54.9183 194.531 49.1047 191.06 43.5105 187.296C36.9291 182.875 30.4573 178.162 24.3878 173.046C18.6108 168.187 13.1628 162.962 8.00739 157.371C6.3986 155.946 5.37483 154.229 4.93606 152.219C4.0951 150.319 3.87572 148.346 4.27792 146.264C4.53387 144.071 5.26513 142.098 6.50829 140.344C7.4955 138.262 8.92148 136.508 10.7862 135.083C12.1391 134.169 13.4919 133.256 14.8448 132.343C17.6967 130.844 20.7315 130.004 23.9856 129.894C25.2653 129.894 26.5816 130.004 27.8979 130.223C23.7297 123.537 19.7808 116.704 16.0879 109.725C11.225 100.591 6.8008 91.2732 2.77882 81.7367C2.26693 80.5674 1.79161 79.3617 1.31628 78.1925C0.255944 76.329 -0.146254 74.3924 0.0365635 72.3463C-0.182817 70.2636 0.219381 68.254 1.13347 66.3174C1.86474 65.0386 2.596 63.7963 3.32727 62.5174C4.71668 60.5443 6.43516 58.9732 8.51928 57.804C9.799 56.7443 11.225 55.977 12.8338 55.5386C14.991 54.5155 17.2579 53.9674 19.6711 53.9674C23.6931 54.004 28.4464 54.8443 31.2617 58.0232C32.1027 58.9732 32.9437 59.8867 33.7846 60.8367C33.7846 60.7636 33.7846 60.6905 33.7846 60.654C33.5652 58.5713 33.9674 56.5616 34.8815 54.6251C35.6128 53.3463 36.3441 52.1039 37.0753 50.8251C38.4647 48.852 40.1832 47.2809 42.2673 46.1116C43.5471 45.052 44.973 44.2847 46.5818 43.8463C48.7391 42.8232 51.006 42.2751 53.4192 42.2751C57.4777 42.3116 62.1578 43.1886 65.0098 46.3309C67.9714 49.5828 71.0062 52.8347 74.0775 56.0136C74.1872 54.5886 74.5528 53.2001 75.211 51.8482C75.9423 50.5693 76.6735 49.327 77.4048 48.0482C78.7942 46.0751 80.5127 44.5039 82.5968 43.3347C83.8765 42.2751 85.3025 41.5078 86.9113 41.0693C89.0685 40.0462 91.3355 39.4982 93.7486 39.4982C95.2112 39.6078 96.6737 39.7539 98.0997 39.8635C100.879 40.4116 103.292 41.6539 105.339 43.5539C108.849 46.1482 112.396 48.7059 115.943 51.227C121.391 55.027 126.875 58.754 132.396 62.4078C129.032 56.9636 125.742 51.4462 122.524 45.8924C118.429 38.7309 114.48 31.4962 110.678 24.152C109.617 22.2885 109.215 20.352 109.398 18.3058C109.178 16.2231 109.581 14.2135 110.495 12.277C111.226 10.9981 111.957 9.75583 112.689 8.47699C114.078 6.50391 115.796 4.93274 117.881 3.7635C119.16 2.70389 120.586 1.93657 122.195 1.49811C124.352 0.475037 126.619 -0.0730438 129.032 -0.0730438C133.127 -0.036499 137.661 0.876953 140.623 3.98273C154.992 19.0731 171.3 32.0808 188.119 44.3578C192.287 47.3905 196.492 50.3866 200.697 53.3828C202.817 54.8809 204.938 56.3424 207.022 57.8405C208.96 58.7174 210.459 60.0328 211.519 61.7867C212.945 63.3213 213.75 65.1117 214.006 67.2309C214.591 69.3867 214.408 71.3963 213.677 73.3328Z" fill="black"/>
</svg>
